<svg version="1.0" xmlns="http://www.w3.org/2000/svg" width="80" height="64" viewBox="0 0 800.000000 300.000000" preserveAspectRatio="xMidYMid meet">
    <g transform="translate(0.000000, 300.000000) scale(0.100000,-0.100000)" stroke="none">
        <path d="M7420 2675 l0 -65 175 0 175 0 0 -25 0 -25 -175 0 -175 0 0 -60 0
        -60 175 0 175 0 0 -25 0 -25 -175 0 -175 0 0 -65 0 -65 240 0 240 0 0 240 0
        240 -240 0 -240 0 0 -65z"/>
        <path d="M100 1245 l0 -965 185 0 185 0 0 260 0 260 3480 0 3480 0 0 185 0
        185 -520 0 -520 0 0 75 0 75 520 0 520 0 0 445 0 445 -1265 0 -1265 0 0 -520
        0 -520 -205 0 -205 0 0 520 0 520 -185 0 -185 0 0 -520 0 -520 -205 0 -205 0
        0 520 0 520 -1805 0 -1805 0 0 -965z m1040 260 l0 -335 -335 0 -335 0 0 335 0
        335 335 0 335 0 0 -335z m1080 260 l0 -75 -335 0 -335 0 0 75 0 75 335 0 335
        0 0 -75z m1080 0 l0 -75 -335 0 -335 0 0 75 0 75 335 0 335 0 0 -75z m2680 0
        l0 -75 -335 0 -335 0 0 75 0 75 335 0 335 0 0 -75z m1080 0 l0 -75 -335 0
        -335 0 0 75 0 75 335 0 335 0 0 -75z m-4800 -520 l0 -75 -355 0 -355 0 0 75 0
        75 355 0 355 0 0 -75z m1080 0 l0 -75 -355 0 -355 0 0 75 0 75 355 0 355 0 0
        -75z m2680 0 l0 -75 -355 0 -355 0 0 75 0 75 355 0 355 0 0 -75z"/>
    </g>
</svg>
